<svg width="40" height="40" viewBox="0 0 40 40" fill="none" xmlns="http://www.w3.org/2000/svg">
<g clip-path="url(#clip0)">
<path d="M30.8438 17.4102L14.5363 1.10279C13.0659 -0.367598 10.5263 -0.367598 9.18962 1.10279C7.71931 2.57318 7.71931 4.97912 9.18962 6.44951L22.6901 20.0836L9.1897 33.584C7.71938 35.0544 7.71938 37.4604 9.1897 38.9307C9.85806 39.599 10.9274 40 11.863 40C12.7986 40 13.8681 39.599 14.5363 38.9306L30.8438 22.7569C31.5121 22.0885 31.9131 21.0192 31.9131 20.0835C31.9131 19.1479 31.5121 18.0786 30.8438 17.4102ZM28.9724 20.8855L12.7987 37.0594C12.3977 37.4603 11.5957 37.4603 11.1947 37.0594C10.7937 36.6584 10.7937 35.8563 11.1947 35.4554L25.6308 21.0193C26.1655 20.4846 26.1655 19.6826 25.6308 19.1479L11.061 4.71186C10.66 4.17717 10.66 3.50881 11.061 3.10787C11.3284 2.84053 11.5957 2.70693 11.8631 2.70693C12.1304 2.70693 12.3977 2.84053 12.6651 3.10787L28.9725 19.4153C29.2399 19.6826 29.3734 19.95 29.3734 20.2173C29.2398 20.3508 29.1061 20.7519 28.9724 20.8855Z" fill="#878787"/>
</g>
<defs>
<clipPath id="clip0">
<rect width="40" height="40" fill="white"/>
</clipPath>
</defs>
</svg>
